PathFileType	4	(X/Y/Z)	s07c0403.trc
DataRate	CameraRate	NumFrames	NumMarkers	Units	OrigDataRate	OrigDataStartFrame	OrigNumFrames
200	200	7	48	mm	200	0	2000
Frame#	Time	racr			lacr			c7			jug			rlel			rdr			llel			ldr			s2			lic			ric			lasi			rasi			rpsi			lpsi			rgt			lgt			rth1			rth2			rth3			rth4			rlfc			rmfc			rsh1			rsh2			rsh3			rsh4			rlmal			rcal			rtoe			rmt5			lth1			lth2			lth4			lth3			llfc			lmfc			lsh1			lsh2			lsh3			lsh4			llmal			lcal			ltoe			lmt5			SBIKE			LBIKE			RBIKE			
		X1	Y1	Z1	X2	Y2	Z2	X3	Y3	Z3	X4	Y4	Z4	X5	Y5	Z5	X6	Y6	Z6	X7	Y7	Z7	X8	Y8	Z8	X9	Y9	Z9	X10	Y10	Z10	X11	Y11	Z11	X12	Y12	Z12	X13	Y13	Z13	X14	Y14	Z14	X15	Y15	Z15	X16	Y16	Z16	X17	Y17	Z17	X18	Y18	Z18	X19	Y19	Z19	X20	Y20	Z20	X21	Y21	Z21	X22	Y22	Z22	X23	Y23	Z23	X24	Y24	Z24	X25	Y25	Z25	X26	Y26	Z26	X27	Y27	Z27	X28	Y28	Z28	X29	Y29	Z29	X30	Y30	Z30	X31	Y31	Z31	X32	Y32	Z32	X33	Y33	Z33	X34	Y34	Z34	X35	Y35	Z35	X36	Y36	Z36	X37	Y37	Z37	X38	Y38	Z38	X39	Y39	Z39	X40	Y40	Z40	X41	Y41	Z41	X42	Y42	Z42	X43	Y43	Z43	X44	Y44	Z44	X45	Y45	Z45	X46	Y46	Z46	X47	Y47	Z47	X48	Y48	Z48	
0	0.0000	453.945323	1425.991216	-106.085417	426.684257	1416.072541	-391.367171	424.729986	1449.684215	-250.148905	384.095312	1313.790378	-244.642547	460.312125	1106.503802	42.011617	687.243989	937.136197	-57.520403	460.665258	1111.175250	-533.126133	688.759302	927.330802	-449.122128	-135.668028	1205.195509	-245.352337	27.525337	1250.218249	-386.935752	36.164252	1233.070331	-93.749012	57.294134	1170.337070	-361.995522	47.280320	1178.137755	-113.953397	-107.352144	1241.305579	-193.096911	-94.080841	1252.155753	-300.186013	-25.886581	1115.513728	-51.684828	-33.176686	1098.425882	-419.012590	111.631678	1042.952415	-52.876315	195.296301	1019.765031	-65.761767	259.599820	963.658941	-65.314236	209.878244	1050.908453	-82.123105	371.569539	877.420436	-100.724608	367.406727	857.698331	-195.435894	329.788790	739.633396	-75.137526	323.192545	651.875842	-93.278310	278.451273	577.868477	-87.039219	338.129258	650.832575	-130.320439	229.103550	451.410634	-86.753557	161.029573	412.191779	-112.827784	449.642015	382.479230	-130.088015	372.637608	351.118269	-58.311772	31.902382	995.655161	-426.206959	105.942233	949.498129	-431.880417	133.553984	972.061408	-423.546885	147.661102	868.876065	-428.031311	251.119594	716.719652	-397.413004	241.384122	702.802644	-298.222872	148.065776	606.099090	-414.451225	102.502217	536.494477	-391.777955	25.182239	490.372930	-399.742778	106.494322	539.331378	-350.300370	-77.035447	401.689774	-395.593165	-157.881621	384.932669	-361.472290	114.568755	287.638295	-358.736336	30.507160	286.486738	-422.282440	-262.314316	964.463507	-237.239362	-82.904129	79.319521	-436.821528	-82.733866	78.894123	-39.190172	
1	0.0050	453.920064	1425.968750	-106.073325	426.668041	1416.101281	-391.336416	424.711534	1449.698309	-250.155683	384.039123	1313.812194	-244.633503	460.306811	1106.495320	41.992858	687.218534	937.093066	-57.549809	460.631953	1111.176122	-533.111737	688.751175	927.322615	-449.103938	-135.668035	1205.202699	-245.378885	27.484709	1250.205868	-386.941101	36.158944	1233.064659	-93.754883	57.277268	1170.340860	-362.020219	47.267862	1178.142889	-113.902177	-107.389831	1241.302816	-193.117480	-94.096826	1252.163424	-300.187962	-25.911864	1115.505213	-51.694457	-33.208122	1098.438970	-419.035185	111.634018	1042.929958	-52.850673	195.259639	1019.749400	-65.743418	259.556655	963.636577	-65.297821	209.883502	1050.893545	-82.137339	371.513865	877.405144	-100.715428	367.343501	857.694404	-195.412827	329.748504	739.614039	-75.144764	323.157836	651.853741	-93.291599	278.400936	577.865129	-87.050899	338.079156	650.805281	-130.334310	229.061789	451.364090	-86.750874	160.998970	412.149591	-112.841724	449.613176	382.540896	-130.092174	372.625621	351.156184	-58.304227	31.867537	995.664098	-426.223262	105.919133	949.499623	-431.889973	133.531071	972.051408	-423.564879	147.626804	868.862107	-428.073560	251.078770	716.721016	-397.455049	241.393589	702.790103	-298.276352	148.026551	606.086805	-414.497163	102.470260	536.481530	-391.804013	25.149444	490.302666	-399.794672	106.504410	539.329666	-350.344991	-77.055941	401.673701	-395.595299	-157.884308	384.904129	-361.473008	114.570034	287.666364	-358.746517	30.496826	286.503290	-422.300195	-262.316693	964.468273	-237.257805	-82.908335	79.305311	-436.824313	-82.734363	78.817640	-39.185331	
2	0.0100	453.887216	1425.983428	-106.070265	426.646679	1416.105192	-391.323283	424.693156	1449.708894	-250.146754	384.021313	1313.823984	-244.651379	460.290259	1106.502440	41.971721	687.214082	937.078241	-57.568083	460.628349	1111.144116	-533.076206	688.751995	927.314877	-449.083640	-135.695559	1205.205590	-245.370266	27.457701	1250.200024	-386.926897	36.117311	1233.078252	-93.763115	57.260913	1170.338590	-362.015076	47.220943	1178.146980	-113.920936	-107.394658	1241.294021	-193.130731	-94.130893	1252.168339	-300.184673	-25.956737	1115.499228	-51.694789	-33.231199	1098.446437	-419.032986	111.585961	1042.909825	-52.837145	195.213115	1019.736006	-65.727226	259.515774	963.601247	-65.277878	209.834185	1050.878266	-82.101579	371.461363	877.379626	-100.697006	367.281562	857.670846	-195.387318	329.676567	739.570992	-75.127620	323.084144	651.825769	-93.299780	278.331396	577.821312	-87.043917	338.031275	650.772303	-130.329948	229.004721	451.319721	-86.763184	160.946162	412.054665	-112.808693	449.585462	382.581458	-130.107541	372.599012	351.170395	-58.311521	31.829185	995.678050	-426.238487	105.895360	949.511935	-431.904414	133.492340	972.058370	-423.577100	147.595897	868.878720	-428.110360	251.040287	716.706165	-397.501280	241.362182	702.776943	-298.318198	147.979424	606.078356	-414.525214	102.445883	536.462031	-391.819633	25.117326	490.281431	-399.803616	106.462964	539.263642	-350.368520	-77.082464	401.632635	-395.613147	-157.914163	384.866145	-361.481369	114.557730	287.650551	-358.743843	30.496172	286.484040	-422.302654	-262.314423	964.463652	-237.249602	-82.917085	79.298173	-436.820865	-82.745840	78.832622	-39.177649	
3	0.0150	453.874707	1425.977105	-106.055050	427.068853	1414.643857	-385.019998	424.690688	1448.420215	-244.255531	383.963777	1313.845313	-244.629596	460.200541	1107.190497	42.459071	687.192158	937.082303	-57.583615	460.760920	1111.392051	-533.605956	688.759370	927.286528	-449.080282	-135.721304	1205.193145	-245.382299	21.942932	1244.892746	-371.839496	35.591298	1233.219573	-93.589953	57.212578	1170.347260	-362.014825	47.174225	1178.164418	-113.884939	-107.455734	1241.316242	-193.117734	-94.138556	1252.163957	-300.183375	-26.002794	1115.501383	-51.699117	-33.266117	1098.447936	-419.042135	111.559415	1042.887007	-52.810908	195.532265	1020.728877	-65.618627	259.471879	963.603340	-65.263439	209.700279	1050.910503	-82.087836	371.564302	877.262580	-100.625514	365.231868	857.598862	-196.091181	329.614809	739.541369	-75.117092	322.960771	651.763818	-93.299784	278.280161	577.793043	-87.045009	337.965327	650.615557	-130.387650	228.506634	451.880588	-86.347715	160.946599	412.209159	-112.867317	449.554600	382.634455	-130.089797	372.581433	351.210149	-58.306290	32.114734	995.693593	-425.482348	106.330051	948.459485	-431.009186	133.448631	972.115218	-423.675614	147.557802	868.872997	-428.140417	250.988292	716.694381	-397.539567	241.308935	702.777389	-298.335216	148.054454	606.024617	-414.572382	102.474115	536.357646	-391.890695	25.100907	490.296607	-399.865821	107.648584	539.347526	-350.284170	-77.148113	401.876590	-396.043155	-157.926329	384.829401	-361.487744	114.554941	287.654003	-358.752957	30.490342	286.476392	-422.314053	-262.433438	964.506754	-237.766670	-82.921597	79.292483	-436.827054	-82.728235	78.823983	-39.191353	
4	0.0200	453.848926	1425.690591	-106.094569	426.962629	1413.401525	-381.976472	424.614634	1447.637982	-241.526325	383.954004	1313.897184	-244.630471	460.179647	1107.061472	42.345607	687.388420	936.834962	-57.453626	463.380046	1109.808025	-529.742978	689.159104	924.765565	-443.111609	-135.673151	1205.197511	-245.461026	21.925210	1244.589182	-371.912764	35.521958	1233.192371	-93.512093	57.314880	1169.741696	-362.138423	47.152157	1178.127003	-113.878668	-107.503581	1241.376749	-193.222931	-94.069216	1252.165153	-300.337567	-25.822834	1114.975628	-51.875916	-30.475128	1096.502869	-413.620161	111.491651	1042.866618	-52.735413	195.469381	1020.736933	-65.561759	259.400313	963.624980	-65.209425	209.545335	1050.730059	-82.241975	371.566484	877.346020	-100.612392	364.869318	856.828628	-195.089671	329.699540	739.157567	-75.295421	322.899832	651.192914	-93.405320	278.380558	577.344109	-87.255630	338.003403	650.105634	-130.580841	228.233577	452.022856	-85.975381	161.019878	412.221673	-112.677557	449.410451	382.870412	-129.818561	372.722298	350.840477	-58.402398	34.825384	993.649821	-420.864005	106.329532	948.458678	-430.997998	133.386632	971.961807	-423.653489	147.679633	868.504649	-428.247946	251.151598	716.419585	-397.395887	241.451291	702.359434	-298.434850	148.254549	605.778396	-414.433885	102.703934	535.957924	-391.846741	25.455779	489.741260	-399.267474	121.128840	540.942776	-345.060911	-77.043610	401.635865	-395.800129	-157.809526	385.006678	-361.749963	117.241354	284.750842	-354.768091	34.270862	281.842495	-416.157684	-262.403585	964.405708	-237.890138	-82.747263	79.816519	-436.520190	-82.544056	78.236691	-39.313391	
5	0.0250	453.792419	1426.105639	-105.967264	427.267332	1412.409808	-380.044721	426.187258	1447.455658	-240.826116	383.919786	1313.942508	-244.601443	460.062377	1107.017297	42.283961	687.172057	937.145632	-57.611463	464.001803	1109.198373	-527.041808	689.092921	924.441231	-442.617984	-135.639168	1205.172276	-245.533420	21.908033	1244.480005	-371.955442	35.450812	1233.254310	-93.532204	57.174403	1170.463921	-361.993471	47.101989	1178.139433	-113.893487	-107.649925	1241.389810	-193.235613	-94.008215	1252.161046	-300.383671	-26.133874	1115.705517	-51.670481	-30.269523	1095.548037	-410.599420	111.436835	1042.842923	-52.724125	195.421326	1020.700611	-65.562398	259.362338	963.611305	-65.178113	209.465812	1050.656731	-82.314019	371.552417	877.345613	-100.547013	364.831953	856.600341	-194.870170	329.331281	739.676934	-75.034316	329.854675	650.926417	-87.441768	277.975581	577.914047	-87.010050	342.359555	649.977285	-124.734835	228.424167	451.805630	-86.304242	161.025424	411.994411	-112.674079	449.315110	382.933584	-129.837486	372.379462	351.412044	-58.253535	35.029572	992.541763	-417.833489	106.305819	948.466123	-430.985441	135.026200	969.665508	-418.942893	150.402266	865.555705	-420.623931	254.427870	713.503668	-390.851716	241.061579	702.962841	-298.294492	157.130870	603.883081	-408.075803	106.792914	533.863413	-386.143529	25.084213	490.153148	-399.751745	119.856870	539.505596	-344.212637	-77.137350	401.531065	-395.651892	-158.015672	384.820387	-361.555326	117.581728	282.539840	-350.749423	33.490701	280.746185	-413.980468	-262.388510	964.487832	-237.779387	-82.817363	79.139026	-436.495190	-82.958667	78.992360	-39.300721	
6	0.0300	453.752585	1426.104691	-105.976850	426.487042	1415.999295	-391.178046	424.443715	1449.481273	-249.902491	383.896895	1314.001190	-244.579749	460.009385	1107.020027	42.275933	687.125936	937.124035	-57.699031	460.782877	1111.484165	-533.712144	688.462860	926.908124	-448.807068	-135.651364	1205.161170	-245.583781	21.870350	1245.097290	-371.743157	35.455661	1233.286800	-93.593460	57.149388	1170.470330	-361.974443	47.067533	1178.159898	-113.872654	-107.745343	1241.394033	-193.215440	-94.025811	1252.134699	-300.394178	-26.202878	1115.750785	-51.659935	-33.312426	1098.507167	-419.140476	111.409294	1042.843123	-52.703431	195.388835	1020.672075	-65.527831	259.314130	963.582716	-65.149045	209.408971	1050.644045	-82.262571	371.519665	877.314211	-100.474375	364.780458	857.908969	-196.850859	329.257472	739.677492	-74.982923	322.605826	651.869639	-93.326493	277.894276	577.929460	-86.956145	337.797475	650.711159	-130.183186	228.470878	451.684047	-86.462241	160.958020	411.869329	-112.758466	449.271310	382.981871	-129.817707	372.360345	351.473212	-58.249246	31.719338	995.740470	-426.341525	106.259179	948.496711	-431.041409	133.357882	972.159595	-423.713105	147.468989	868.958198	-428.191459	250.890930	716.733970	-397.782079	241.006860	702.976831	-298.312104	148.038682	605.948541	-414.726690	102.299656	536.439046	-391.956015	25.033118	490.127916	-400.010141	106.138071	538.715798	-350.235075	-77.196183	401.443337	-395.575024	-158.125285	384.722465	-361.465897	114.540171	287.642911	-358.732279	30.483893	286.392239	-422.299857	-262.384505	964.502678	-237.708340	-83.202485	79.186004	-436.888997	-82.974374	79.072998	-39.272013	
